<svg version="1.2" xmlns="http://www.w3.org/2000/svg" viewBox="0 0 492 516" width="492" height="516">
	<title>Polycircle AI</title>
	<style>
		.s0 { fill: #2d6cdf } 
	</style>
	<g>
		<path class="s0" d="m209.5 96.5c-44.5 7.1-81.8 33.2-103.1 72.2-16.2 29.6-20.6 66.9-11.9 101.3 10 39.4 38.3 73.5 75.5 90.9 20.1 9.4 34.8 12.5 59 12.5 19.4 0 28.7-1.4 44.9-6.6 54.1-17.3 92.6-64.7 97.1-119.5 4.9-60.6-30-118-86-141.6-22.2-9.4-51.9-13-75.5-9.2zm38.5 17c12.3 1.9 18.4 3.7 18.8 5.6 0.5 2.6-30.1 32.2-39.5 38.1-3.8 2.5-6.5 3.3-13.2 4-9.9 1.1-14.6 3.2-19.3 8.8-4.1 4.7-5.8 9.7-5.8 17.1 0 4.6-0.6 6.3-3.7 10.9-5.6 8.4-21.5 25.1-27.1 28.5-4.6 2.8-5 3.3-5.5 7.8-0.6 4.9 0.5 9.7 2.2 9.7 1.3 0 14.1 8.9 14.1 9.8 0 0.4 2.7 3.8 6 7.5 9.4 10.7 11.4 14.7 12.1 24.7 0.3 4.8 1.4 10.2 2.3 12.2 4.4 9.2 14.2 14.6 24.4 13.4 5.2-0.6 5.7-0.5 10.6 3.2 2.8 2.1 6.7 4.8 8.6 6 1.9 1.2 9.6 8.2 17 15.6 15.6 15.7 15.6 15.4 2 18.3-6.4 1.3-12.6 1.7-25 1.7-14.3-0.1-17.8-0.5-26.1-2.7-27.5-7.3-49.8-21.3-66.2-41.7-34.4-42.8-36.8-101.4-6-147.7 4.9-7.4 17.1-20.2 24.6-25.8 27.9-21.1 62-30 94.7-25zm50 18.2c9.6 6.3 33 29.1 33 32.1 0 1-1.3 2.8-3 4-1.6 1.2-4.8 5.4-7 9.2-5.2 8.9-8.3 12.4-17.9 20.4-7 5.8-8.2 6.5-15.5 7.9-8.6 1.8-13.2 4.6-17.4 10.7-6.4 9.5-4.9 23.4 3.5 31.1 4.3 4.1 9 6.1 15.7 6.6 10.7 1 16 4.5 33.8 22.5 8.7 8.7 15.8 16.4 15.8 17 0 4.8-22.4 30.4-34 38.9-7.8 5.7-22 13.9-24.1 13.9-0.9 0-8.2-6.6-16.1-14.8-8-8.1-17.7-17.6-21.7-21.1l-7.3-6.4 0.7-10.7c0.8-12.7-0.6-17.1-7.2-23.1-5.6-5.1-10-6.3-19.7-5.6-7.6 0.6-8.2 0.5-12.5-2.3-2.6-1.6-6.3-5.1-8.3-7.7-2-2.6-6.8-7.5-10.7-10.8-3.8-3.3-7-6.8-7-7.8-0.1-0.9 2-3.2 4.7-5.1 2.6-1.9 7.7-6.8 11.4-10.9 8.1-9 13.7-12.2 18.8-10.7 5 1.4 14.5 1.2 18.4-0.4 4.7-2 10.4-7.3 12.8-12 2.4-4.6 2.9-14.7 1-18.3-3.3-6.1-0.4-12.4 8.7-18.5 2.5-1.7 11.8-10.5 20.7-19.5 18.6-19 15.8-18.2 30.4-8.6zm-78.5 45.9c9 4.2 5.7 17.4-4.4 17.4-10.8 0-14.9-10.9-6.2-16.7 4-2.7 6.1-2.9 10.6-0.7zm124.6 8.9c7.2 15.9 10.5 34.3 9.7 54.2-0.5 12-3.6 30.2-5.9 34.5-1.7 3.2-4.5 1.9-11-5.3-3.5-3.8-9.9-10.5-14.2-14.8l-7.9-7.7 0.7-11.4c0.6-9.5 0.4-12.3-1-16-3.4-9.3-3.4-9.5 11.8-25.2 2.6-2.7 5.4-6.4 6.3-8.1 4.5-8.9 7.5-8.9 11.5-0.2zm-48.2 34.6c3.8 1.3 5.1 3.5 5.1 8.4 0 7.5-7.9 11.7-15 8-8.8-4.5-5.4-17.1 4.6-17.4 1.2-0.1 3.5 0.4 5.3 1zm-79.6 57.8c3.8 1.5 5.7 4 5.7 7.7 0 4.8-1.5 7.3-5.6 9-2.7 1.1-4.4 1.2-7.3 0.4-4.8-1.3-6.2-2.9-6.7-7.7-0.5-4.3 0.8-6.5 5.2-8.8 3.4-1.7 5.3-1.9 8.7-0.6z"/>
	</g>
</svg>